<svg version="1.1" id="Layer_1" xmlns="http://www.w3.org/2000/svg" xmlns:xlink="http://www.w3.org/1999/xlink" x="0px" y="0px"
	 width="100%" viewBox="0 0 3264 3264" enable-background="new 0 0 3264 3264" xml:space="preserve">
<path fill="#FE9900" opacity="1.000000" stroke="none" 
	d="
M1824.000000,3266.000000 
	C1216.000122,3266.000000 609.000366,3266.000000 2.000407,3266.000000 
	C2.000271,2178.000488 2.000271,1090.000977 2.000136,2.001137 
	C1089.999146,2.000758 2177.998291,2.000758 3265.998047,2.000379 
	C3265.998779,1089.998901 3265.998779,2177.997803 3265.999512,3265.998291 
	C2785.666748,3266.000000 2305.333252,3266.000000 1824.000000,3266.000000 
M1940.628174,1218.801636 
	C1958.872192,1272.763428 1970.150513,1328.188599 1973.567139,1385.005127 
	C1978.041626,1459.414673 1971.000854,1532.721680 1950.695679,1604.688965 
	C1934.296509,1662.812012 1910.532593,1717.649658 1878.933960,1769.014526 
	C1832.054688,1845.218262 1772.091187,1909.324829 1698.981323,1960.987549 
	C1616.204834,2019.481201 1524.708252,2056.796387 1424.590942,2072.463623 
	C1347.141846,2084.583252 1269.876221,2082.998535 1192.942017,2067.385010 
	C1131.786377,2054.973877 1073.648560,2034.236206 1018.498840,2005.087646 
	C985.722046,1987.763916 954.636047,1967.801147 925.253418,1945.180176 
	C922.879028,1943.352051 920.795532,1940.373169 916.762756,1940.991943 
	C1029.993652,2211.530273 1360.739746,2458.090332 1769.439575,2368.824463 
	C2163.089355,2282.845703 2431.709717,1890.705322 2341.054443,1472.314087 
	C2298.886475,1277.699585 2193.191895,1123.805664 2029.897949,1010.245422 
	C1926.363281,938.243958 1811.023804,896.736023 1685.071045,884.033081 
	C1805.643677,968.241089 1891.710083,1078.364868 1940.628174,1218.801636 
z"/>
<path fill="#FFFEFE" opacity="1.000000" stroke="none" 
	d="
M1940.335693,1218.068848 
	C1891.710083,1078.364868 1805.643677,968.241089 1685.071045,884.033081 
	C1811.023804,896.736023 1926.363281,938.243958 2029.897949,1010.245422 
	C2193.191895,1123.805664 2298.886475,1277.699585 2341.054443,1472.314087 
	C2431.709717,1890.705322 2163.089355,2282.845703 1769.439575,2368.824463 
	C1360.739746,2458.090332 1029.993652,2211.530273 916.762756,1940.991943 
	C920.795532,1940.373169 922.879028,1943.352051 925.253418,1945.180176 
	C954.636047,1967.801147 985.722046,1987.763916 1018.498840,2005.087646 
	C1073.648560,2034.236206 1131.786377,2054.973877 1192.942017,2067.385010 
	C1269.876221,2082.998535 1347.141846,2084.583252 1424.590942,2072.463623 
	C1524.708252,2056.796387 1616.204834,2019.481201 1698.981323,1960.987549 
	C1772.091187,1909.324829 1832.054688,1845.218262 1878.933960,1769.014526 
	C1910.532593,1717.649658 1934.296509,1662.812012 1950.695679,1604.688965 
	C1971.000854,1532.721680 1978.041626,1459.414673 1973.567139,1385.005127 
	C1970.150513,1328.188599 1958.872192,1272.763428 1940.335693,1218.068848 
z"/>
</svg>